<svg width="145" height="60" viewBox="0 0 145 60" fill="none" xmlns="http://www.w3.org/2000/svg">
<path d="M83.0489 5.91825H78.4611V8.079H80.5521V13.7157C80.5521 14.937 79.7719 15.5947 78.5859 15.5947C77.3999 15.5947 76.5573 14.9684 76.5573 13.7157V12.3379H74.2478V13.7784C74.2478 16.3149 76.1828 17.818 78.6171 17.818C81.0515 17.818 83.0801 16.3149 83.0801 13.7784V5.91825H83.0489Z" fill="#383535"/>
<path d="M89.9772 9.73892L91.6001 13.5907H88.3543L89.9772 9.73892ZM92.3804 15.7201L93.2855 17.6617H95.8759V17.3172L90.539 5.82452H89.3843L84.0162 17.3172V17.6617H86.6066L87.5117 15.7201H92.3804Z" fill="#383535"/>
<path d="M102.336 12.8078C102.71 12.8078 103.054 12.8391 103.335 13.027C103.678 13.2775 103.865 13.716 103.865 14.1857C103.803 14.9686 103.303 15.4696 102.461 15.4696H99.6832V12.7765H102.336V12.8078ZM101.961 8.07921C102.835 8.07921 103.366 8.64288 103.366 9.48839C103.335 10.2713 102.804 10.741 101.961 10.741H99.6832V8.07921H101.961ZM105.8 9.42576C105.8 7.2337 104.271 5.94977 102.118 5.94977H97.1552V17.6617H102.586C104.926 17.6617 106.3 16.2525 106.3 14.1857C106.3 12.9957 105.707 12.0249 104.645 11.5865C105.363 11.1168 105.8 10.2713 105.8 9.42576Z" fill="#383535"/>
<path d="M112.697 9.73892L114.32 13.5907H111.105L112.697 9.73892ZM115.132 15.7201L116.037 17.6617H118.627V17.3172L113.29 5.82452H112.135L106.767 17.3172V17.6617H109.358L110.263 15.7201H115.132Z" fill="#383535"/>
<path d="M122.374 11.7121V8.11084H124.87C125.931 8.11084 126.587 8.89372 126.587 9.89581C126.618 10.8979 125.931 11.7121 124.87 11.7121H122.374ZM126.93 13.3718C128.272 12.7142 129.021 11.3989 129.021 9.92713C129.021 7.86032 127.554 5.91877 124.902 5.91877C123.247 5.88746 121.593 5.91877 119.908 5.91877V17.662H122.405V13.7789H124.496L126.899 17.662H129.583V17.3175L126.93 13.3718Z" fill="#383535"/>
<path d="M78.0547 33.789V26.6178H79.8648C81.9871 26.6178 83.1418 28.3089 83.1418 30.1878C83.1418 32.0667 82.0183 33.789 79.8648 33.789H78.0547ZM75.5579 24.3631V36.075H79.896C83.6724 36.075 85.6698 33.194 85.6074 30.1878C85.6074 27.2128 83.61 24.3945 79.896 24.3945H75.5579V24.3631Z" fill="#383535"/>
<path d="M91.0071 34.071V26.2735H92.5363V24.3319H87.0122V26.2735H88.5103V34.071H86.8562V36.0438H92.6612V34.071H91.0071Z" fill="#383535"/>
<path d="M93.9103 30.1882C93.9103 34.0713 96.7816 36.2007 99.8714 36.2007C102.118 36.2007 104.178 35.1986 105.083 32.85C105.458 31.7853 105.489 30.6892 105.427 29.5619H99.965V31.66H103.148C102.649 33.4137 101.494 33.9147 99.8714 33.9147C97.7803 33.9147 96.4383 32.4116 96.4383 30.1882C96.4383 28.0901 97.6867 26.4304 99.8714 26.4304C101.213 26.4304 102.15 26.8688 102.711 28.0274H105.177C104.522 25.303 102.181 24.1757 99.8714 24.1757C96.8128 24.207 93.9103 26.3051 93.9103 30.1882Z" fill="#383535"/>
<path d="M110.888 34.071V26.2735H112.386V24.3319H106.862V26.2735H108.36V34.071H106.706V36.0438H112.511V34.071H110.888Z" fill="#383535"/>
<path d="M116.693 26.524V36.0438H119.127V26.524H122.217V24.3319H113.572V26.524H116.693Z" fill="#383535"/>
<path d="M127.492 28.1521L129.115 32.0039H125.869L127.492 28.1521ZM129.895 34.102L130.8 36.0435H133.391V35.6991L128.054 24.2064H126.899L121.531 35.6991V36.0435H124.122L125.027 34.102H129.895Z" fill="#383535"/>
<path d="M136.761 24.3319H134.264V36.0438H141.63V33.8205H136.761V24.3319Z" fill="#383535"/>
<path d="M74.9034 51.0124C74.9034 53.5803 77.3377 54.7389 79.6472 54.7389C81.9567 54.6763 84.3287 53.8308 84.3287 51.0751C84.3287 48.3193 82.2064 47.787 79.7408 47.5678C78.5237 47.4425 77.4937 47.192 77.4937 46.1586C77.4937 45.2504 78.4925 44.7181 79.4912 44.7181C80.4899 44.7181 81.4886 45.1252 81.6134 46.0646H83.9541C83.9541 43.4341 81.6758 42.526 79.4912 42.526C77.1816 42.526 75.0594 43.622 75.0594 46.2212C75.0594 48.6638 77.1817 49.3527 79.3039 49.5406C80.4275 49.6346 81.8631 49.7285 81.8631 51.0751C81.8631 52.2964 80.6771 52.5469 79.616 52.5469C78.4925 52.5469 77.3065 52.1085 77.2753 51.0124H74.9034Z" fill="#383535"/>
<path d="M93.5039 42.7453H86.3569V54.4572H93.6287V52.2025H88.8848V49.5094H93.1918V47.3173H88.8848V44.9374H93.5039V42.7453Z" fill="#383535"/>
<path d="M98.3728 48.5386V44.9374H100.87C101.931 44.9374 102.586 45.7203 102.586 46.7224C102.617 47.7244 101.931 48.5386 100.87 48.5386H98.3728ZM102.929 50.1983C104.271 49.5407 105.02 48.2255 105.02 46.7537C105.02 44.6869 103.554 42.7453 100.901 42.7453C99.2467 42.714 97.5925 42.7453 95.9072 42.7453V54.4885H98.404V50.6054H100.495L102.898 54.4885H105.582V54.1441L102.929 50.1983Z" fill="#383535"/>
<path d="M111.356 50.2923L110.045 46.5031L108.485 42.7453H105.832V43.1211L110.857 54.5825H111.887L116.849 43.1211V42.7453H114.196L112.636 46.5345L111.418 50.2923H111.356Z" fill="#383535"/>
<path d="M121.873 52.4843V44.6869H123.371V42.7453H117.847V44.6869H119.377V52.4843H117.723V54.4572H123.528V52.4843H121.873Z" fill="#383535"/>
<path d="M124.776 48.6325C124.776 52.5156 127.679 54.5824 130.737 54.5824C133.171 54.5824 135.668 53.2985 136.168 50.1983H133.764C133.359 51.6075 132.173 52.2964 130.737 52.2964C128.646 52.2964 127.304 50.6367 127.304 48.6012C127.304 46.3779 128.677 44.8747 130.768 44.8747C132.173 44.8747 133.234 45.4697 133.733 46.7849H136.168C135.637 43.9039 133.14 42.62 130.768 42.62C127.679 42.5887 124.776 44.7181 124.776 48.6325Z" fill="#383535"/>
<path d="M144.845 42.7453H137.698V54.4572H145.001V52.2025H140.226V49.5094H144.564V47.3173H140.226V44.9374H144.845V42.7453Z" fill="#383535"/>
<path fill-rule="evenodd" clip-rule="evenodd" d="M23.0951 20.5741C24.0314 20.5741 24.8117 21.357 24.8117 22.2964C24.8117 23.2359 24.0314 24.0188 23.0951 24.0188C22.1588 24.0188 21.3786 23.2359 21.3786 22.2964C21.4098 21.3257 22.1588 20.5741 23.0951 20.5741ZM16.4475 20.5741C17.3838 20.5741 18.164 21.357 18.164 22.2964C18.164 23.2359 17.415 24.0188 16.4475 24.0188C15.5112 24.0188 14.731 23.2359 14.731 22.2964C14.731 21.3257 15.48 20.5741 16.4475 20.5741ZM9.76862 20.5741C10.7049 20.5741 11.4851 21.357 11.4851 22.2964C11.4851 23.2359 10.7361 24.0188 9.76862 24.0188C8.83233 24.0188 8.05209 23.2359 8.05209 22.2964C8.05209 21.3257 8.83233 20.5741 9.76862 20.5741ZM19.4124 6.85804H10.1743C9.23805 6.85804 8.45781 7.64092 8.45781 8.58038C8.45781 9.51983 9.23805 10.3027 10.1743 10.3027H26.0288C26.9651 10.3027 27.7142 11.0856 27.7142 12.0251C27.7142 12.9645 26.9339 13.7474 25.9976 13.7474H1.02992C0.655402 13.7474 0.312096 13.9353 0.124839 14.2797C0.0624193 14.405 0 14.5929 0 14.7808C0 14.9687 0.0312096 15.1253 0.124839 15.3132L3.96362 22.0459C4.08846 22.2651 4.33814 22.3591 4.55661 22.2964C4.80628 22.2338 4.96233 22.0146 4.96233 21.7954V17.1294H32.0835C33.0198 17.1294 33.8 17.9123 33.8 18.8518C33.8 19.7912 33.0198 20.5741 32.0835 20.5741H29.774C28.8377 20.5741 28.0575 21.357 28.0575 22.2964C28.0575 23.2359 28.8377 24.0188 29.774 24.0188H32.7389C38.0446 24.0501 42.7884 26.3674 46.0654 30C48.9055 26.8058 50.622 22.6096 50.622 18.0063C50.622 8.11065 42.6636 0.0626305 32.8013 0L18.6634 0C17.7271 0 16.9468 0.782881 16.9468 1.72234C16.9468 2.6618 17.7271 3.44468 18.6634 3.44468H19.3188H19.4436C20.3799 3.44468 21.1601 4.22756 21.1601 5.16701C21.1289 6.07516 20.3487 6.85804 19.4124 6.85804Z" fill="#1BACE3"/>
<path d="M32.7393 0C49.1867 0 62.6381 13.4969 62.6381 30C62.6381 46.5031 49.1867 60 32.7393 60C42.6327 59.9687 50.6224 51.9207 50.6224 41.9937C50.6224 37.3904 48.9059 33.1942 46.0658 30C48.9059 26.8058 50.6224 22.6096 50.6224 18.0063C50.6536 8.07933 42.6327 0.0313152 32.7393 0Z" fill="#009457"/>
<path fill-rule="evenodd" clip-rule="evenodd" d="M46.0658 30C42.7887 33.6952 38.0137 36.0125 32.708 36.0125H14.7313C8.58297 36.0125 3.52701 40.6472 2.84039 46.6284V49.3841C3.52701 55.3653 8.58297 60 14.7313 60H32.7392C42.6327 59.9687 50.6224 51.9207 50.6224 41.9937C50.6536 37.3904 48.9058 33.1942 46.0658 30Z" fill="#FFC630"/>
</svg>
