<svg width="10" height="14" viewBox="0 0 10 14" fill="none" xmlns="http://www.w3.org/2000/svg">
<path d="M8.44828 11.1034C8.25622 11.1034 8.07204 11.1797 7.93623 11.3155C7.80043 11.4513 7.72414 11.6355 7.72414 11.8276V12.5517H1.44828V1.44828H7.72414V2.17241C7.72414 2.36447 7.80043 2.54865 7.93623 2.68446C8.07204 2.82026 8.25622 2.89655 8.44828 2.89655C8.64033 2.89655 8.82452 2.82026 8.96032 2.68446C9.09612 2.54865 9.17241 2.36447 9.17241 2.17241V1.2069C9.17241 1.0484 9.1412 0.891465 9.08054 0.745037C9.01989 0.59861 8.93099 0.465563 8.81892 0.353492C8.70685 0.241421 8.5738 0.152522 8.42738 0.0918695C8.28095 0.0312173 8.12401 0 7.96552 0H1.2069C0.886808 0 0.579829 0.127155 0.353492 0.353492C0.127155 0.579829 0 0.886808 0 1.2069V12.7931C0 13.1132 0.127155 13.4202 0.353492 13.6465C0.579829 13.8728 0.886808 14 1.2069 14H7.96552C8.12401 14 8.28095 13.9688 8.42738 13.9081C8.5738 13.8475 8.70685 13.7586 8.81892 13.6465C8.93099 13.5344 9.01989 13.4014 9.08054 13.255C9.1412 13.1085 9.17241 12.9516 9.17241 12.7931V11.8276C9.17241 11.6355 9.09612 11.4513 8.96032 11.3155C8.82452 11.1797 8.64033 11.1034 8.44828 11.1034Z" fill="#424242"/>
</svg>
