  <svg
    class="fill-green-500 hover:fill-green-700"
    width="14"
    height="15"
    viewBox="0 0 14 15"
    fill="none"
    xmlns="http://www.w3.org/2000/svg"
  >
    <path
      d="M6.8215 0.728314L7 0.716064C7.31717 0.716078 7.6236 0.830939 7.86263 1.03941C8.10166 1.24787 8.25712 1.53585 8.30025 1.85006L8.3125 2.02856V6.40181L12.6875 6.40356C13.0047 6.40358 13.3111 6.51844 13.5501 6.72691C13.7892 6.93537 13.9446 7.22335 13.9878 7.53756L14 7.71606C14 8.03323 13.8851 8.33966 13.6767 8.57869C13.4682 8.81772 13.1802 8.97318 12.866 9.01631L12.6875 9.02856L8.3125 9.02681V13.4036C8.31249 13.7207 8.19763 14.0272 7.98916 14.2662C7.78069 14.5052 7.49272 14.6607 7.1785 14.7038L7 14.7161C6.68283 14.7161 6.3764 14.6012 6.13737 14.3927C5.89834 14.1843 5.74288 13.8963 5.69975 13.5821L5.6875 13.4036V9.02681L1.3125 9.02856C0.995334 9.02855 0.688901 8.91369 0.449871 8.70522C0.210841 8.49675 0.0553845 8.20878 0.0122499 7.89456L0 7.71606C1.33751e-05 7.3989 0.114875 7.09247 0.323342 6.85344C0.53181 6.61441 0.819781 6.45895 1.134 6.41581L1.3125 6.40356L5.6875 6.40181V2.02856C5.68751 1.7114 5.80237 1.40497 6.01084 1.16594C6.21931 0.926906 6.50728 0.771449 6.8215 0.728314Z"
    />
  </svg>