<svg width="16" height="17" viewBox="0 0 16 17" fill="none" xmlns="http://www.w3.org/2000/svg">
<path fill-rule="evenodd" clip-rule="evenodd" d="M10.8303 13.1626C9.70939 13.9609 8.33809 14.4304 6.85714 14.4304C3.07005 14.4304 0 11.3603 0 7.57321C0 3.78611 3.07005 0.716064 6.85714 0.716064C10.6442 0.716064 13.7143 3.78611 13.7143 7.57321C13.7143 9.05416 13.2448 10.4255 12.4466 11.5464L15.6653 14.7651C16.1116 15.2114 16.1116 15.935 15.6653 16.3813C15.219 16.8276 14.4953 16.8276 14.049 16.3813L10.8303 13.1626ZM11.4286 7.57321C11.4286 10.0979 9.38187 12.1446 6.85714 12.1446C4.33241 12.1446 2.28571 10.0979 2.28571 7.57321C2.28571 5.04848 4.33241 3.00178 6.85714 3.00178C9.38187 3.00178 11.4286 5.04848 11.4286 7.57321Z" fill="#627798"/>
</svg>
