<svg
  width="9"
  height="17"
  viewBox="0 0 9 17"
  fill="none"
  xmlns="http://www.w3.org/2000/svg"
>
    <path
      d="M0.352455 9.34039L7.08561 16.4605C7.24134 16.6253 7.44922 16.7161 7.67089 16.7161C7.89255 16.7161 8.10043 16.6253 8.25616 16.4605L8.75201 15.9362C9.07467 15.5946 9.07467 15.0395 8.75201 14.6984L3.09802 8.71938L8.75829 2.73374C8.91402 2.56893 9 2.34922 9 2.11495C9 1.88041 8.91402 1.66071 8.75829 1.49577L8.26244 0.971672C8.10658 0.806861 7.89882 0.716066 7.67716 0.716066C7.4555 0.716066 7.24761 0.806861 7.09188 0.971672L0.352455 8.09825C0.196357 8.26358 0.11062 8.48433 0.111112 8.71899C0.11062 8.95457 0.196357 9.17518 0.352455 9.34039Z"
    />
  </svg>
