<svg width="73" height="30" viewBox="0 0 73 30" fill="none" xmlns="http://www.w3.org/2000/svg">
<path d="M41.5244 2.95913H39.2305V4.0395H40.276V6.85787C40.276 7.46852 39.8859 7.79733 39.2929 7.79733C38.7 7.79733 38.2786 7.48418 38.2786 6.85787V6.16894H37.1239V6.88919C37.1239 8.15746 38.0914 8.90902 39.3085 8.90902C40.5257 8.90902 41.54 8.15746 41.54 6.88919V2.95913H41.5244Z" fill="#383535"/>
<path d="M44.9886 4.86946L45.8001 6.79535H44.1772L44.9886 4.86946ZM46.1902 7.86007L46.6427 8.83084H47.9379V8.65861L45.2695 2.91226H44.6921L42.0081 8.65861V8.83084H43.3033L43.7559 7.86007H46.1902Z" fill="#383535"/>
<path d="M51.168 6.4039C51.3552 6.4039 51.5269 6.41956 51.6673 6.51351C51.839 6.63877 51.9326 6.85798 51.9326 7.09284C51.9014 7.48428 51.6517 7.7348 51.2304 7.7348H49.8416V6.38825H51.168V6.4039ZM50.9807 4.0396C51.4177 4.0396 51.6829 4.32144 51.6829 4.7442C51.6673 5.13564 51.4021 5.3705 50.9807 5.3705H49.8416V4.0396H50.9807ZM52.9001 4.71288C52.9001 3.61685 52.1355 2.97489 51.0587 2.97489H48.5776V8.83084H51.2928C52.4632 8.83084 53.1498 8.12624 53.1498 7.09284C53.1498 6.49785 52.8533 6.01246 52.3227 5.79326C52.6816 5.55839 52.9001 5.13564 52.9001 4.71288Z" fill="#383535"/>
<path d="M56.3486 4.86946L57.1601 6.79535H55.5528L56.3486 4.86946ZM57.5658 7.86007L58.0183 8.83084H59.3135V8.65861L56.6451 2.91226H56.0677L53.3837 8.65861V8.83084H54.6789L55.1314 7.86007H57.5658Z" fill="#383535"/>
<path d="M61.1868 5.85605V4.05542H62.4351C62.9657 4.05542 63.2934 4.44686 63.2934 4.94791C63.309 5.44895 62.9657 5.85605 62.4351 5.85605H61.1868ZM63.4651 6.6859C64.1361 6.35709 64.5106 5.69947 64.5106 4.96356C64.5106 3.93016 63.7772 2.95939 62.4508 2.95939C61.6237 2.94373 60.7966 2.95939 59.954 2.95939V8.831H61.2024V6.88945H62.2479L63.4495 8.831H64.7915V8.65876L63.4651 6.6859Z" fill="#383535"/>
<path d="M39.0273 16.8945V13.3089H39.9324C40.9935 13.3089 41.5709 14.1544 41.5709 15.0939C41.5709 16.0333 41.0091 16.8945 39.9324 16.8945H39.0273ZM37.7789 12.1816V18.0375H39.948C41.8362 18.0375 42.8349 16.597 42.8037 15.0939C42.8037 13.6064 41.805 12.1972 39.948 12.1972H37.7789V12.1816Z" fill="#383535"/>
<path d="M45.5035 17.0355V13.1367H46.2682V12.166H43.5061V13.1367H44.2551V17.0355H43.4281V18.0219H46.3306V17.0355H45.5035Z" fill="#383535"/>
<path d="M46.9552 15.0941C46.9552 17.0356 48.3908 18.1004 49.9357 18.1004C51.0592 18.1004 52.0892 17.5993 52.5417 16.425C52.729 15.8926 52.7446 15.3446 52.7134 14.7809H49.9825V15.83H51.5742C51.3245 16.7068 50.7471 16.9574 49.9357 16.9574C48.8902 16.9574 48.2192 16.2058 48.2192 15.0941C48.2192 14.045 48.8434 13.2152 49.9357 13.2152C50.6067 13.2152 51.0748 13.4344 51.3557 14.0137H52.5885C52.2608 12.6515 51.0905 12.0878 49.9357 12.0878C48.4064 12.1035 46.9552 13.1526 46.9552 15.0941Z" fill="#383535"/>
<path d="M55.4441 17.0355V13.1367H56.1932V12.166H53.4311V13.1367H54.1801V17.0355H53.3531V18.0219H56.2556V17.0355H55.4441Z" fill="#383535"/>
<path d="M58.3464 13.262V18.0219H59.5636V13.262H61.1085V12.166H56.7859V13.262H58.3464Z" fill="#383535"/>
<path d="M63.7461 14.076L64.5576 16.0019H62.9347L63.7461 14.076ZM64.9477 17.051L65.4003 18.0218H66.6954V17.8495L64.027 12.1032H63.4497L60.7656 17.8495V18.0218H62.0608L62.5134 17.051H64.9477Z" fill="#383535"/>
<path d="M68.3805 12.166H67.1321V18.0219H70.8149V16.9102H68.3805V12.166Z" fill="#383535"/>
<path d="M37.4517 25.5062C37.4517 26.7901 38.6688 27.3695 39.8236 27.3695C40.9783 27.3382 42.1643 26.9154 42.1643 25.5375C42.1643 24.1597 41.1032 23.8935 39.8704 23.7839C39.2618 23.7212 38.7469 23.596 38.7469 23.0793C38.7469 22.6252 39.2462 22.359 39.7456 22.359C40.2449 22.359 40.7443 22.5626 40.8067 23.0323H41.9771C41.9771 21.7171 40.8379 21.263 39.7456 21.263C38.5908 21.263 37.5297 21.811 37.5297 23.1106C37.5297 24.3319 38.5908 24.6764 39.6519 24.7703C40.2137 24.8173 40.9315 24.8643 40.9315 25.5375C40.9315 26.1482 40.3385 26.2734 39.808 26.2734C39.2462 26.2734 38.6532 26.0542 38.6376 25.5062H37.4517Z" fill="#383535"/>
<path d="M46.7519 21.3727H43.1784V27.2286H46.8144V26.1013H44.4424V24.7547H46.5959V23.6587H44.4424V22.4687H46.7519V21.3727Z" fill="#383535"/>
<path d="M49.1864 24.2693V22.4687H50.4348C50.9653 22.4687 51.293 22.8601 51.293 23.3612C51.3087 23.8622 50.9653 24.2693 50.4348 24.2693H49.1864ZM51.4647 25.0992C52.1357 24.7704 52.5102 24.1127 52.5102 23.3768C52.5102 22.3434 51.7768 21.3727 50.4504 21.3727C49.6233 21.357 48.7963 21.3727 47.9536 21.3727V27.2443H49.202V25.3027H50.2475L51.4491 27.2443H52.7911V27.072L51.4647 25.0992Z" fill="#383535"/>
<path d="M55.678 25.1461L55.0226 23.2516L54.2424 21.3727H52.916V21.5605L55.4283 27.2912H55.9433L58.4245 21.5605V21.3727H57.098L56.3178 23.2672L55.7092 25.1461H55.678Z" fill="#383535"/>
<path d="M60.9367 26.2422V22.3434H61.6858V21.3727H58.9237V22.3434H59.6884V26.2422H58.8613V27.2286H61.7638V26.2422H60.9367Z" fill="#383535"/>
<path d="M62.388 24.3163C62.388 26.2578 63.8393 27.2912 65.3686 27.2912C66.5857 27.2912 67.8341 26.6493 68.0838 25.0992H66.8822C66.6794 25.8037 66.0864 26.1482 65.3686 26.1482C64.323 26.1482 63.652 25.3184 63.652 24.3006C63.652 23.1889 64.3386 22.4374 65.3842 22.4374C66.0864 22.4374 66.6169 22.7349 66.8666 23.3925H68.0838C67.8185 21.952 66.5701 21.31 65.3842 21.31C63.8393 21.2944 62.388 22.3591 62.388 24.3163Z" fill="#383535"/>
<path d="M72.4223 21.3727H68.8488V27.2286H72.5003V26.1013H70.1128V24.7547H72.2819V23.6587H70.1128V22.4687H72.4223V21.3727Z" fill="#383535"/>
<path fill-rule="evenodd" clip-rule="evenodd" d="M11.5476 10.2871C12.0157 10.2871 12.4058 10.6785 12.4058 11.1482C12.4058 11.618 12.0157 12.0094 11.5476 12.0094C11.0794 12.0094 10.6893 11.618 10.6893 11.1482C10.7049 10.6628 11.0794 10.2871 11.5476 10.2871ZM8.22374 10.2871C8.69188 10.2871 9.08201 10.6785 9.08201 11.1482C9.08201 11.618 8.70749 12.0094 8.22374 12.0094C7.7556 12.0094 7.36548 11.618 7.36548 11.1482C7.36548 10.6628 7.73999 10.2871 8.22374 10.2871ZM4.88431 10.2871C5.35245 10.2871 5.74257 10.6785 5.74257 11.1482C5.74257 11.618 5.36806 12.0094 4.88431 12.0094C4.41616 12.0094 4.02604 11.618 4.02604 11.1482C4.02604 10.6628 4.41616 10.2871 4.88431 10.2871ZM9.7062 3.42902H5.08717C4.61903 3.42902 4.22891 3.82046 4.22891 4.29019C4.22891 4.75992 4.61903 5.15136 5.08717 5.15136H13.0144C13.4826 5.15136 13.8571 5.5428 13.8571 6.01253C13.8571 6.48225 13.467 6.8737 12.9988 6.8737H0.514959C0.327701 6.8737 0.156048 6.96764 0.0624193 7.13987C0.0312096 7.20251 0 7.29645 0 7.3904C0 7.48434 0.0156048 7.56263 0.0624193 7.65658L1.98181 11.023C2.04423 11.1326 2.16907 11.1795 2.2783 11.1482C2.40314 11.1169 2.48117 11.0073 2.48117 10.8977V8.56472H16.0418C16.5099 8.56472 16.9 8.95616 16.9 9.42589C16.9 9.89562 16.5099 10.2871 16.0418 10.2871H14.887C14.4189 10.2871 14.0287 10.6785 14.0287 11.1482C14.0287 11.618 14.4189 12.0094 14.887 12.0094H16.3695C19.0223 12.0251 21.3942 13.1837 23.0327 15C24.4528 13.4029 25.311 11.3048 25.311 9.00313C25.311 4.05532 21.3318 0.0313152 16.4007 0L9.33168 0C8.86354 0 8.47342 0.391441 8.47342 0.861169C8.47342 1.3309 8.86354 1.72234 9.33168 1.72234H9.65938H9.7218C10.1899 1.72234 10.5801 2.11378 10.5801 2.58351C10.5645 3.03758 10.1743 3.42902 9.7062 3.42902Z" fill="#1BACE3"/>
<path d="M16.3696 0C24.5934 0 31.319 6.74843 31.319 15C31.319 23.2516 24.5934 30 16.3696 30C21.3164 29.9843 25.3112 25.9603 25.3112 20.9969C25.3112 18.6952 24.4529 16.5971 23.0329 15C24.4529 13.4029 25.3112 11.3048 25.3112 9.00313C25.3268 4.03967 21.3164 0.0156576 16.3696 0Z" fill="#009457"/>
<path fill-rule="evenodd" clip-rule="evenodd" d="M23.0328 15C21.3943 16.8476 19.0068 18.0063 16.354 18.0063H7.3656C4.29145 18.0063 1.76347 20.3236 1.42017 23.3142V24.6921C1.76347 27.6827 4.29145 30 7.3656 30H16.3696C21.3163 29.9843 25.3111 25.9603 25.3111 20.9969C25.3268 18.6952 24.4529 16.5971 23.0328 15Z" fill="#FFC630"/>
</svg>
